# xmcd CD database file
#
# Track frame offsets:
#	150
#	13333
#	22150
#	33628
#	44104
#	53950
#	67308
#	77146
#	88117
#	98325
#	109421
#	122995
#
# Disc length: 1802 seconds
#
# Revision: 0
# Processed by: cddbd v1.5.2PL0 Copyright (c) Steve Scherf et al.
# Submitted via: CDex 1.51
#
DISCID=b207080c
DTITLE=George Shearing Quintet - Latin Affair
DYEAR=1958
DGENRE=Jazz
TTITLE0=All Or Nothing At All
TTITLE1=Let's Call The Whole Thing Off
TTITLE2=Afro #4
TTITLE3=Magic
TTITLE4=It's Easy To Remember
TTITLE5=Estampa Cubana
TTITLE6=You Stepped Out Of A Dream
TTITLE7=Mambo Balahu
TTITLE8=Dearly Beloved
TTITLE9=Juana Palangana
TTITLE10=This Is Africa
TTITLE11=Anywhere
EXTD=YEAR: 1958
EXTT0=
EXTT1=
EXTT2=
EXTT3=
EXTT4=
EXTT5=
EXTT6=
EXTT7=
EXTT8=
EXTT9=
EXTT10=
EXTT11=
PLAYORDER=
